<?xml version="1.0" encoding="utf-8"?>
<!-- Generator: Adobe Illustrator 23.0.5, SVG Export Plug-In . SVG Version: 6.00 Build 0)  -->
<svg version="1.1" id="Layer_1" xmlns="http://www.w3.org/2000/svg" xmlns:xlink="http://www.w3.org/1999/xlink" x="0px" y="0px"
	 viewBox="0 0 191.9 62" style="enable-background:new 0 0 191.9 62;" xml:space="preserve">
<style type="text/css">
	.st0{enable-background:new    ;}
	.st1{fill:#303030;}
	.st2{fill:#0B605E;}
	.st3{fill:#E39163;}
	.st4{fill:#FFFEFD;}
	.st5{display:none;fill:none;stroke:#000000;stroke-width:0.5;stroke-miterlimit:10;}
</style>
<g id="Layer_5">
</g>
<g id="Layer_3">
	<g class="st0">
		<path class="st1" d="M56.4,13h-0.6c0-1.7-0.5-3.3-1.6-4.7c-1.1-1.5-2.6-2.2-4.7-2.2c-1.1,0-2.1,0.7-2.8,2s-1.1,3.6-1.1,6.8
			s0.4,5.5,1.1,6.8c0.7,1.3,1.9,2,3.5,2s2.9-0.5,4-1.5s1.7-2.4,2-4.2h0.6c-0.3,2.1-1,3.7-2.2,4.7s-2.6,1.6-4.2,1.6
			c-3.2,0-5.6-0.8-7.3-2.3s-2.5-3.9-2.5-7.2s0.8-5.6,2.5-7.1s3.8-2.2,6.6-2.2c1.5,0,2.9,0.4,4.3,1.2C54.2,6.9,54.6,7,54.9,7
			s0.5-0.1,0.7-0.4s0.3-0.5,0.3-0.8h0.6L56.4,13L56.4,13z"/>
		<path class="st1" d="M66.5,24.1c-2,0-3.9-0.7-5.5-2s-2.5-3.2-2.5-5.6c0-1.3,0.2-2.5,0.7-3.5s1.1-1.8,1.9-2.4
			c0.8-0.6,1.7-1.1,2.6-1.4c0.9-0.3,1.9-0.5,2.8-0.5s1.9,0.2,2.8,0.5s1.8,0.8,2.6,1.4s1.4,1.4,1.9,2.4s0.7,2.2,0.7,3.5
			s-0.2,2.4-0.7,3.4s-1.1,1.8-2,2.4C70.3,23.5,68.5,24.1,66.5,24.1z M64.1,21.8c0.5,1.1,1.3,1.6,2.4,1.6c1.2,0,2-0.5,2.5-1.6
			s0.7-2.9,0.7-5.4S69.5,12.1,69,11s-1.3-1.6-2.5-1.6s-2,0.5-2.4,1.6c-0.5,1.1-0.7,2.9-0.7,5.4C63.4,19,63.6,20.8,64.1,21.8z"/>
		<path class="st1" d="M93.7,23.1h1.6v0.6h-8v-0.6h1.6v-9c0-1.5-0.2-2.6-0.7-3.2c-0.4-0.6-1.1-1-2-1c-1.2,0-2.2,0.6-2.9,1.9V23h1.6
			v0.6h-8V23h1.6V9.7h-1.6V9h6.4v1.7c0.4-0.6,1-1,1.9-1.4C86,8.9,87,8.7,88,8.7c3.8,0,5.7,2.1,5.7,6.2V23.1z"/>
		<path class="st1" d="M104.7,23.5c2.2,0,3.3-0.6,3.3-1.8c0-0.7-0.4-1.2-1.2-1.7c-0.8-0.4-1.7-0.8-2.8-1.1s-2.2-0.6-3.2-1
			c-1.1-0.4-1.9-0.9-2.6-1.7c-0.7-0.8-1-1.8-0.8-3.1s0.8-2.3,2-3.2c1.2-0.8,2.6-1.2,4.4-1.2c1.7,0,3.1,0.3,4.2,0.8
			c1.1,0.6,1.7,1.3,1.8,2.2c0.1,0.6,0,1.1-0.3,1.6s-0.7,0.7-1.3,0.8c-0.6,0-1.1-0.1-1.5-0.5c-0.4-0.3-0.6-0.7-0.6-1.2
			c0-0.4,0.2-0.8,0.5-1.2s0.5-0.6,0.5-0.8c0-0.4-0.3-0.6-1-0.8s-1.5-0.3-2.4-0.3s-1.6,0.2-2.2,0.6s-0.9,0.9-0.9,1.5s0.4,1.1,1.1,1.5
			s1.6,0.8,2.6,1c1,0.3,2,0.6,3.1,0.9c1,0.3,1.9,0.9,2.6,1.6s1.1,1.6,1.1,2.8c0,1.5-0.5,2.7-1.6,3.5c-1,0.9-2.6,1.3-4.7,1.3
			s-3.8-0.3-5.1-1c-1.3-0.6-2-1.5-2.2-2.5c-0.1-0.6,0-1.1,0.3-1.6s0.7-0.7,1.3-0.8c0.6,0,1.1,0.1,1.5,0.5c0.4,0.3,0.6,0.7,0.6,1.2
			c0,0.4-0.2,0.8-0.5,1.2c-0.3,0.4-0.5,0.6-0.5,0.8c0,0.4,0.5,0.8,1.5,1C102.5,23.4,103.6,23.5,104.7,23.5z"/>
		<path class="st1" d="M112.4,16.4c0-2.5,0.7-4.4,2.2-5.7s3.3-2,5.6-2c2.3,0,4,0.6,5.1,1.7s1.5,2.3,1.2,3.5
			c-0.2,0.7-0.5,1.1-1.1,1.5c-0.5,0.3-1.1,0.4-1.8,0.2c-1.3-0.3-2-1.1-2-2.3c0-0.3,0-0.8,0.1-1.5s0.1-1.1,0.1-1.4s-0.1-0.5-0.2-0.7
			c-0.2-0.4-0.7-0.5-1.5-0.4c-1.9,0.3-2.9,2.7-2.9,7.1s1.6,6.6,4.7,6.6c0.7,0,1.5-0.2,2.2-0.6s1.3-0.8,1.7-1.4l0.4,0.3
			c-0.5,0.8-1.2,1.5-2.2,2s-2.1,0.7-3.3,0.7C115.2,24.1,112.4,21.5,112.4,16.4z"/>
		<path class="st1" d="M135.2,23.1h1.6v0.6h-8v-0.6h1.6V9.7h-1.3V9h6.1L135.2,23.1L135.2,23.1z M135.5,4.8c0,0.8-0.3,1.4-0.8,2
			s-1.2,0.8-2,0.8s-1.4-0.3-2-0.8s-0.8-1.2-0.8-2s0.3-1.4,0.8-2s1.2-0.8,2-0.8s1.4,0.3,2,0.8S135.5,4,135.5,4.8z"/>
		<path class="st1" d="M146.7,24.1c-2,0-3.9-0.7-5.5-2s-2.5-3.2-2.5-5.6c0-1.3,0.2-2.5,0.7-3.5s1.1-1.8,1.9-2.4s1.7-1.1,2.6-1.4
			c0.9-0.3,1.9-0.5,2.8-0.5s1.9,0.2,2.8,0.5c0.9,0.3,1.8,0.8,2.6,1.4s1.4,1.4,1.9,2.4s0.7,2.2,0.7,3.5s-0.2,2.4-0.7,3.4
			s-1.1,1.8-2,2.4C150.6,23.5,148.7,24.1,146.7,24.1z M144.3,21.8c0.5,1.1,1.3,1.6,2.4,1.6c1.2,0,2-0.5,2.5-1.6s0.7-2.9,0.7-5.4
			s-0.2-4.3-0.7-5.4s-1.3-1.6-2.5-1.6s-2,0.5-2.4,1.6c-0.5,1.1-0.7,2.9-0.7,5.4C143.6,19,143.9,20.8,144.3,21.8z"/>
		<path class="st1" d="M168.1,23.8v-1.7c-0.4,0.6-1,1.1-1.9,1.5s-1.8,0.6-2.8,0.6c-3.8,0-5.7-2.1-5.7-6.2V9.7h-1.6V9h6.4v9.6
			c0,1.5,0.2,2.6,0.7,3.2c0.4,0.6,1.1,1,2,1c1.2,0,2.2-0.6,2.9-1.9V9.7h-1.6V9h6.4v14.1h1.6v0.6L168.1,23.8L168.1,23.8z"/>
		<path class="st1" d="M184,23.5c2.2,0,3.3-0.6,3.3-1.8c0-0.7-0.4-1.2-1.2-1.7c-0.8-0.4-1.7-0.8-2.8-1.1s-2.2-0.6-3.2-1
			c-1.1-0.4-1.9-0.9-2.6-1.7c-0.7-0.8-1-1.8-0.8-3.1s0.8-2.3,2-3.2c1.2-0.8,2.6-1.2,4.4-1.2c1.7,0,3.1,0.3,4.2,0.8
			c1.1,0.6,1.7,1.3,1.8,2.2c0.1,0.6,0,1.1-0.3,1.6s-0.7,0.7-1.3,0.8c-0.6,0-1.1-0.1-1.5-0.5c-0.4-0.3-0.6-0.7-0.6-1.2
			c0-0.4,0.2-0.8,0.5-1.2s0.5-0.6,0.5-0.8c0-0.4-0.3-0.6-1-0.8s-1.5-0.3-2.4-0.3s-1.6,0.2-2.2,0.6s-0.9,0.9-0.9,1.5s0.4,1.1,1.1,1.5
			s1.6,0.8,2.6,1c1,0.3,2,0.6,3.1,0.9c1,0.3,1.9,0.9,2.6,1.6c0.7,0.7,1.1,1.6,1.1,2.8c0,1.5-0.5,2.7-1.6,3.5c-1,0.9-2.6,1.3-4.7,1.3
			c-2.1,0-3.8-0.3-5.1-1c-1.3-0.6-2-1.5-2.2-2.5c-0.1-0.6,0-1.1,0.3-1.6s0.7-0.7,1.3-0.8c0.6,0,1.1,0.1,1.5,0.5
			c0.4,0.3,0.6,0.7,0.6,1.2c0,0.4-0.2,0.8-0.5,1.2c-0.3,0.4-0.5,0.6-0.5,0.8c0,0.4,0.5,0.8,1.5,1C181.8,23.4,182.9,23.5,184,23.5z"
			/>
		<path class="st1" d="M48.9,53.8h-8v-0.6h1.6V36.5h-1.6v-0.6h8c1.6,0,3,0.3,4.3,0.8s2.3,1.2,3.1,2.1c1.6,1.8,2.4,3.8,2.4,6
			c0,3-0.8,5.3-2.4,6.8S52.2,53.8,48.9,53.8z M47.3,53.1c2.3,0,4-0.6,5-1.9s1.5-3.3,1.5-6.1s-0.6-5-1.7-6.4
			c-1.1-1.5-2.7-2.2-4.9-2.2v16.6H47.3z"/>
		<path class="st1" d="M74.7,47.4H65c0.2,3.8,1.7,5.6,4.4,5.6c0.7,0,1.6-0.2,2.5-0.5s1.6-0.8,2-1.4l0.4,0.3c-0.5,0.8-1.3,1.4-2.4,2
			c-1.1,0.5-2.3,0.8-3.4,0.8s-2.1-0.1-3-0.3s-1.8-0.6-2.6-1.1c-0.9-0.5-1.5-1.3-2-2.4s-0.7-2.4-0.7-3.9c0-2.6,0.7-4.5,2.1-5.7
			c1.4-1.2,3.2-1.9,5.2-1.9s3.7,0.7,5.1,2C74.1,42.1,74.7,44.3,74.7,47.4z M65,46.7h5.2c0-2-0.2-3.7-0.6-5.2s-1.1-2.2-2-2.2
			s-1.6,0.7-2,2.1c-0.4,1.4-0.6,3-0.6,4.9V46.7z"/>
		<path class="st1" d="M84.3,53.5c2.2,0,3.3-0.6,3.3-1.8c0-0.7-0.4-1.2-1.2-1.7s-1.7-0.8-2.8-1.1s-2.2-0.6-3.2-1
			c-1.1-0.4-1.9-0.9-2.6-1.7s-1-1.8-0.8-3.1s0.8-2.3,2-3.2s2.6-1.2,4.4-1.2c1.7,0,3.1,0.3,4.2,0.8c1.1,0.6,1.7,1.3,1.8,2.2
			c0.1,0.6,0,1.1-0.3,1.6s-0.7,0.7-1.3,0.8c-0.6,0-1.1-0.1-1.5-0.5c-0.4-0.3-0.6-0.7-0.6-1.2c0-0.4,0.2-0.8,0.5-1.2s0.5-0.6,0.5-0.8
			c0-0.4-0.3-0.6-1-0.8s-1.5-0.3-2.4-0.3S81.6,39.6,81,40s-0.9,0.9-0.9,1.5s0.4,1.1,1.1,1.5s1.6,0.8,2.6,1c1,0.3,2,0.6,3.1,0.9
			c1,0.3,1.9,0.9,2.6,1.6c0.7,0.7,1.1,1.6,1.1,2.8c0,1.5-0.5,2.7-1.6,3.5c-1,0.9-2.6,1.3-4.7,1.3s-3.8-0.3-5.1-1
			c-1.3-0.6-2-1.5-2.2-2.5c-0.1-0.6,0-1.1,0.3-1.6s0.7-0.7,1.3-0.8c0.6,0,1.1,0.1,1.5,0.5c0.4,0.3,0.6,0.7,0.6,1.2
			c0,0.4-0.2,0.8-0.5,1.2s-0.5,0.6-0.5,0.8c0,0.4,0.5,0.8,1.5,1C82.1,53.4,83.1,53.5,84.3,53.5z"/>
		<path class="st1" d="M98.7,53.1h1.6v0.6h-8v-0.6h1.6V39.7h-1.3V39h6.1C98.7,39,98.7,53.1,98.7,53.1z M99,34.8c0,0.8-0.3,1.4-0.8,2
			s-1.2,0.8-2,0.8s-1.4-0.3-2-0.8s-0.8-1.2-0.8-2s0.3-1.4,0.8-2c0.6-0.6,1.2-0.8,2-0.8s1.4,0.3,2,0.8S99,34,99,34.8z"/>
		<path class="st1" d="M106.4,50.8c0,0.6,0.4,0.9,1.2,1h5.5c1.9,0,3.2,0.4,4,1.2c0.7,0.8,1,1.8,0.8,3s-1,2.3-2.2,3.3
			s-2.9,1.5-5.1,1.5c-4,0-6.5-0.6-7.7-1.8c-0.4-0.5-0.6-1-0.5-1.6s0.3-1.1,0.7-1.5s0.9-0.7,1.4-0.8c-0.7-0.6-1-1.3-1-2.1
			c0-0.9,0.3-1.6,0.8-2.3s1.1-1.2,1.8-1.6c-2.5-0.9-3.7-2.5-3.7-4.8c0-1.7,0.8-3.1,2.4-4s3.4-1.4,5.4-1.4c1,0,1.9,0.1,2.9,0.4
			c-0.5-0.7-0.7-1.5-0.7-2.4s0.3-1.7,0.9-2.3s1.4-0.9,2.4-0.9s1.7,0.3,2.1,0.8c0.5,0.5,0.7,1.1,0.7,1.7c0,0.6-0.2,1.1-0.6,1.6
			c-0.4,0.4-0.9,0.6-1.5,0.6s-1.1-0.2-1.5-0.6c-0.4-0.4-0.5-0.8-0.5-1.2s0.1-0.8,0.2-1.1c0.2-0.3,0.2-0.5,0.2-0.5
			c-0.1-0.3-0.3-0.4-0.6-0.3c-0.4,0.2-0.7,0.5-0.9,0.9c-0.3,0.5-0.4,1-0.4,1.6c0,1.2,0.5,2.1,1.6,2.8c1.8,1,2.8,2.4,2.8,4.3
			c0,1.8-0.8,3.2-2.3,4.1c-1.5,0.9-3.3,1.4-5.4,1.4c-1,0-1.9-0.1-2.7-0.3C106.6,49.8,106.4,50.3,106.4,50.8z M112.9,56h-5.4
			c-1,0-1.9-0.2-2.6-0.5c-0.3,1.5,0.1,2.7,1.2,3.5s2.6,1.2,4.4,1.2c1.9,0,3.4-0.5,4.7-1.4c0.6-0.4,0.9-0.9,1-1.3
			c0.1-0.4-0.2-0.8-0.7-1.1C114.9,56.1,114,56,112.9,56z M112.3,44.1c0-1.8-0.2-3.1-0.6-3.7s-1.1-1-1.9-1s-1.5,0.3-1.8,1
			c-0.4,0.7-0.6,1.9-0.6,3.7s0.2,3.1,0.6,3.8s1,1.1,1.8,1.1s1.4-0.4,1.9-1.1C112.1,47.2,112.3,45.9,112.3,44.1z"/>
		<path class="st1" d="M137,53.1h1.6v0.6h-8v-0.6h1.6v-9c0-1.5-0.2-2.6-0.7-3.2c-0.4-0.6-1.1-1-2-1c-1.2,0-2.2,0.6-2.9,1.9V53h1.6
			v0.6h-8V53h1.6V39.7h-1.6V39h6.4v1.7c0.4-0.6,1-1,1.9-1.4c0.9-0.4,1.8-0.6,2.8-0.6c3.8,0,5.7,2.1,5.7,6.2L137,53.1L137,53.1z"/>
		<path class="st1" d="M148,53.5c2.2,0,3.3-0.6,3.3-1.8c0-0.7-0.4-1.2-1.2-1.7c-0.8-0.4-1.7-0.8-2.8-1.1s-2.2-0.6-3.2-1
			c-1.1-0.4-1.9-0.9-2.6-1.7c-0.7-0.8-1-1.8-0.8-3.1s0.8-2.3,2-3.2c1.2-0.8,2.6-1.2,4.4-1.2c1.7,0,3.1,0.3,4.2,0.8
			c1.1,0.6,1.7,1.3,1.8,2.2c0.1,0.6,0,1.1-0.3,1.6s-0.7,0.7-1.3,0.8c-0.6,0-1.1-0.1-1.5-0.5c-0.4-0.3-0.6-0.7-0.6-1.2
			c0-0.4,0.2-0.8,0.5-1.2s0.5-0.6,0.5-0.8c0-0.4-0.3-0.6-1-0.8s-1.5-0.3-2.4-0.3s-1.6,0.2-2.2,0.6s-0.9,0.9-0.9,1.5s0.4,1.1,1.1,1.5
			s1.6,0.8,2.6,1c1,0.3,2,0.6,3.1,0.9c1,0.3,1.9,0.9,2.6,1.6c0.7,0.7,1.1,1.6,1.1,2.8c0,1.5-0.5,2.7-1.6,3.5c-1,0.9-2.6,1.3-4.7,1.3
			c-2.1,0-3.8-0.3-5.1-1c-1.3-0.6-2-1.5-2.2-2.5c-0.1-0.6,0-1.1,0.3-1.6s0.7-0.7,1.3-0.8c0.6,0,1.1,0.1,1.5,0.5
			c0.4,0.3,0.6,0.7,0.6,1.2c0,0.4-0.2,0.8-0.5,1.2s-0.5,0.6-0.5,0.8c0,0.4,0.5,0.8,1.5,1C145.9,53.4,146.9,53.5,148,53.5z"/>
	</g>
	<g>
		<polygon class="st2" points="33.6,26.8 33.6,29.5 20.2,42.9 18.1,42.9 4.6,29.5 4.6,26.8 17.8,13.6 20.5,13.6 31.1,24.2 31.8,25 
					"/>
		<polygon class="st3" points="33.6,28.4 33.6,30.5 20.2,43.9 18.1,43.9 4.6,30.5 4.6,28.4 		"/>
		<polygon class="st4" points="19.7,37.1 10.5,27.9 18.9,19.5 24.8,25.4 19.4,30.8 16.2,27.5 18.2,25.6 18.9,26.4 17.7,27.6 
			19.4,29.4 23.3,25.4 18.9,21 12,27.9 19.7,35.6 31.3,24 32,24.7 		"/>
	</g>
</g>
<g id="Layer_4">
</g>
<line class="st5" x1="38.4" y1="2.6" x2="38.4" y2="62.7"/>
</svg>
